<?xml version="1.0" encoding="utf-8"?>
<!-- Generator: Adobe Illustrator 19.2.1, SVG Export Plug-In . SVG Version: 6.00 Build 0)  -->
<!DOCTYPE svg PUBLIC "-//W3C//DTD SVG 1.1//EN" "http://www.w3.org/Graphics/SVG/1.1/DTD/svg11.dtd">
<svg version="1.1" id="Layer_1" xmlns="http://www.w3.org/2000/svg" xmlns:xlink="http://www.w3.org/1999/xlink" x="0px" y="0px"
	 viewBox="0 0 24 24" style="enable-background:new 0 0 24 24;" xml:space="preserve">
<style type="text/css">
	.st0{fill:#010101;}
</style>
<g>
	<path class="st0" d="M12,0C5.4,0,0,5.4,0,12s5.4,12,12,12s12-5.4,12-12S18.6,0,12,0z M12,23.2c-6.2,0-11.2-5-11.2-11.2
		c0-6.2,5-11.2,11.2-11.2c6.2,0,11.2,5,11.2,11.2C23.2,18.2,18.2,23.2,12,23.2z"/>
	<path class="st0" d="M10.8,7.6c-0.2-0.2-0.4-0.2-0.6,0C10,7.7,10,8,10.2,8.1l3.7,3.7l-3.7,3.7c-0.2,0.2-0.2,0.4,0,0.6
		c0.1,0.1,0.2,0.1,0.3,0.1s0.2,0,0.3-0.1l4-4c0.2-0.2,0.2-0.4,0-0.6L10.8,7.6z"/>
</g>
</svg>
