<?xml version="1.0" encoding="utf-8"?>
<!-- Generator: Adobe Illustrator 19.2.1, SVG Export Plug-In . SVG Version: 6.00 Build 0)  -->
<!DOCTYPE svg PUBLIC "-//W3C//DTD SVG 1.1//EN" "http://www.w3.org/Graphics/SVG/1.1/DTD/svg11.dtd">
<svg version="1.1" id="Layer_1" xmlns="http://www.w3.org/2000/svg" xmlns:xlink="http://www.w3.org/1999/xlink" x="0px" y="0px"
	 viewBox="0 0 421.9 120.5" style="enable-background:new 0 0 421.9 120.5;" xml:space="preserve">
<style type="text/css">
	.st0{fill:#FFFFFF;}
	.st1{fill:#00C4B3;}
	.st2{fill:#22D3C5;}
	.st3{fill:#0075C9;}
	.st4{fill:#00A8E1;}
</style>
<g>
	
		<image style="overflow:visible;opacity:0.2;" width="93" height="102" xlink:href="97E94684932D3A7C.png"  transform="matrix(1 0 0 1 135.9278 14.5278)">
	</image>
	<g>
		<path class="st0" d="M211.7,28.2c9.1,8.3,13.6,19.7,13.6,34.4c0,14.8-4.4,26.5-13.3,35.1c-8.8,8.6-22.3,12.9-40.4,12.9h-31.9V16.1
			h33C189.6,16.1,202.6,19.9,211.7,28.2z M196.1,84.4c5.2-4.9,7.8-12,7.8-21.4c0-9.3-2.6-16.7-7.8-21.7s-13.2-7.7-24-7.7h-12.2v58.1
			h13.8C183.4,91.7,190.9,89.3,196.1,84.4z"/>
	</g>
</g>
<g>
	
		<image style="overflow:visible;opacity:0.2;" width="73" height="83" xlink:href="97E94684932D3A7D.png"  transform="matrix(1 0 0 1 230.9278 34.5278)">
	</image>
	<g>
		<path class="st0" d="M300.4,110.7h-18.9v-9c-5.4,6.6-11.7,9.9-19.4,9.9c-7.7,0-14.2-2.2-19.5-6.7s-7.9-10.5-7.9-17.9
			c0-7.5,2.7-13,8.2-16.7c5.4-3.7,12.9-5.5,22.3-5.5h15v-0.6c0-7.8-4-11.7-12.2-11.7c-3.5,0-7.2,0.7-11.2,2.1
			c-3.9,1.4-7.2,3.1-10,5.2l-9.1-13.2c9.6-7,20.6-10.5,32.9-10.5c8.9,0,15.9,2.2,21.6,6.7c5.6,4.4,8.2,11.5,8.2,21.1V110.7
			L300.4,110.7z M280.2,82.6v-3h-12.7c-8.2,0-12.2,2.3-12.2,7.3c0,2.6,1,4.5,2.9,5.9c1.9,1.4,4.7,2,8.4,2c3.6,0,6.8-1.1,9.5-3.4
			C278.9,89.3,280.2,86.3,280.2,82.6z"/>
	</g>
</g>
<g>
	
		<image style="overflow:visible;opacity:0.2;" width="50" height="82" xlink:href="97E94684932D3A7E.png"  transform="matrix(1 0 0 1 311.9278 34.5278)">
	</image>
	<g>
		<path class="st0" d="M354.2,55.3c-6.1,0-10.9,2.1-13.9,6.5c-3,4.3-4.8,10-4.8,17.1v31.9h-20.3V37.7h20.3V47
			c2.7-3,6.4-5.5,10.3-7.6s8.6-3.2,12.6-3.3v19.2L354.2,55.3L354.2,55.3z"/>
	</g>
</g>
<g>
	
		<image style="overflow:visible;opacity:0.2;" width="52" height="103" xlink:href="97E94684932D3A7B.png"  transform="matrix(1 0 0 1 366.9278 14.5278)">
	</image>
	<g>
		<path class="st0" d="M391,52.6v32.2c0,2.8,0.8,5,2.3,6.6c1.4,1.6,3.2,2.4,5.2,2.4c3.8,0,7-1.7,9.7-5.2l7.6,14.3
			c-6.3,5.8-13,8.7-20,8.7s-12.9-2.3-17.8-6.9s-7.2-10.9-7.2-18.9V16.1h20.3v20.3h21.6l-11.1,16.2L391,52.6L391,52.6z"/>
	</g>
</g>
<g>
	
		<image style="overflow:visible;opacity:0.2;" width="115" height="117" xlink:href="97E94684932D3A79.png"  transform="matrix(1 0 0 1 -3.0722 -1.4722)">
	</image>
	<g>
		<g>
			<path class="st1" d="M29.6,29.9l-7.1-7.1V74l0.1,2.4c0,1.1,0.2,2.4,0.6,3.7l56.2,19.8l14-6.2l0,0L29.6,29.9z"/>
			<path class="st2" d="M23.2,80.1L23.2,80.1L23.2,80.1L23.2,80.1z M93.4,93.7l-14,6.2L23.2,80.1c1.1,4.1,3.4,8.7,6,11.3l18.3,18.2
				l40.8,0.1L93.4,93.7L93.4,93.7z"/>
			<path class="st3" d="M22.7,22.8l-21.8,33c-1.8,1.9-0.9,5.9,2,8.9l12.6,12.7l7.9,2.8c-0.3-1.3-0.6-2.6-0.6-3.7L22.7,74V22.8
				L22.7,22.8z"/>
			<path class="st3" d="M79.8,23.4c-1.3-0.3-2.6-0.5-3.7-0.6l-2.5-0.1H22.5l70.9,70.9l0,0l6.2-14L79.8,23.4z"/>
			<path class="st4" d="M79.7,23.4C79.8,23.4,79.8,23.4,79.7,23.4L79.7,23.4C79.8,23.4,79.8,23.4,79.7,23.4z M91.1,29.4
				c-2.6-2.6-7.1-5-11.3-6l19.8,56.2l-6.2,14l0,0l15.2-4.9V47L91.1,29.4z"/>
			<path class="st1" d="M77,15.5L64.3,2.9c-2.9-2.9-6.9-3.8-8.9-2l-33,21.8h51.1l2.5,0.1c1.1,0,2.4,0.2,3.7,0.6L77,15.5z"/>
		</g>
	</g>
</g>
</svg>
