<?xml version="1.0" encoding="utf-8"?>
<!-- Generator: Adobe Illustrator 19.2.1, SVG Export Plug-In . SVG Version: 6.00 Build 0)  -->
<!DOCTYPE svg PUBLIC "-//W3C//DTD SVG 1.1//EN" "http://www.w3.org/Graphics/SVG/1.1/DTD/svg11.dtd">
<svg version="1.1" id="Layer_1" xmlns="http://www.w3.org/2000/svg" xmlns:xlink="http://www.w3.org/1999/xlink" x="0px" y="0px"
	 viewBox="0 0 301.7 333" style="enable-background:new 0 0 301.7 333;" xml:space="preserve">
<style type="text/css">
	.st0{fill:#0075C9;}
	.st1{fill:#CFD1D2;}
	.st2{fill:#A5A7AA;}
	.st3{fill:#BABBBE;}
	.st4{fill:#6FD8C9;}
	.st5{fill:#7FEADD;}
	.st6{fill:#AFF9F0;}
	.st7{fill:#00C4B3;}
	.st8{fill:#00A8E1;}
	.st9{fill:#4FBFF7;}
	.st10{fill:#87D9F9;}
	.st11{fill:#1D1D1B;}
	.st12{fill:#686868;}
	.st13{fill:#FFFFFF;}
</style>
<g>
	<path class="st0" d="M195.5,311.5l-41.3-88l-7.2,16.1L195.5,311.5z M166.4,313.5L147,239.6l-13.9,11.8L166.4,313.5z M139.2,295.8
		l-6.1-44.4l-10.2,8.6L139.2,295.8z"/>
	<path class="st1" d="M270.8,87.1l30.9-10.8L255,88.7l13.9-0.5L270.8,87.1z"/>
	<path class="st2" d="M255,88.7l-13.7,3.6v7l6.8,0.7l20.8-11.8L255,88.7z"/>
	<path class="st3" d="M241.3,99.3l-2.1,13l8.9-12.3L241.3,99.3z"/>
	<path class="st1" d="M241.3,92.3v7l-13-9.5L241.3,92.3z"/>
	<path class="st4" d="M241.3,99.3L225,97.2l6.8-4.9L241.3,99.3z"/>
	<path class="st5" d="M232,100.4l0.2-2.3l9.1,1.2L232,100.4z"/>
	<path class="st6" d="M231.4,106.7l0.6-6.3l9.3-1.1L231.4,106.7z"/>
	<path class="st7" d="M225,97.2l6.4,9.6l0.8-8.7L225,97.2z"/>
	<path class="st5" d="M225,97.2l-10.4,7.6l16.8,2L225,97.2z"/>
	<path class="st6" d="M219.7,94.1l-5.1,10.7l10.4-7.6L219.7,94.1z"/>
	<path class="st7" d="M231.8,92.3l-12.1,1.8l5.3,3.1L231.8,92.3z M228.3,89.8L223,89l8.8,3.3L228.3,89.8z"/>
	<path class="st5" d="M219.7,94.1L223,89l8.8,3.3L219.7,94.1z"/>
	<path class="st7" d="M211.5,88.7l8.2,5.4L223,89L211.5,88.7z"/>
	<path class="st5" d="M208.5,104.1l3-15.4l8.2,5.4L208.5,104.1z"/>
	<path class="st7" d="M219.7,94.1l-11.2,10l6.1,0.7L219.7,94.1z"/>
	<path class="st4" d="M213.5,117.8c0.2-0.5,1.1-13,1.1-13l-6.1-0.7L213.5,117.8z"/>
	<path class="st6" d="M211.5,88.7l-21.9,8.5l18.9,6.9L211.5,88.7z"/>
	<path class="st4" d="M208.5,104.1l-9.1,15.6l-9.8-22.5L208.5,104.1z"/>
	<path class="st5" d="M208.5,104.1l5,13.7l-14.1,1.9L208.5,104.1z M173.8,115.5l15.8-18.3l9.8,22.5L173.8,115.5z"/>
	<path class="st7" d="M214.6,104.8l16.4,24.4l-17.5-11.4L214.6,104.8z"/>
	<path class="st6" d="M231.4,106.8l-5.7,14.7l-11.1-16.7L231.4,106.8z"/>
	<path class="st4" d="M225.7,121.5l12.9-3.1l-2.2,19L225.7,121.5z"/>
	<path class="st5" d="M231.4,106.8l7.2,11.6l-12.9,3.1L231.4,106.8z"/>
	<path class="st7" d="M241.3,99.3l-2.7,19.1l-7.4-11.9L241.3,99.3z"/>
	<path class="st4" d="M213.5,117.8L201.3,134l-1.9-14.3L213.5,117.8z"/>
	<path class="st7" d="M213.5,170.8v-53L201.3,134L213.5,170.8z"/>
	<path class="st5" d="M231.7,129.4l-18.2-11.6v23.3L231.7,129.4z"/>
	<path class="st6" d="M236.4,137.4l-22.9,3.7l18.2-11.7L236.4,137.4z"/>
	<path class="st7" d="M213.5,141.1l22.9-3.7l-1.6,11.7L213.5,141.1z"/>
	<path class="st6" d="M213.5,170.8v-29.7l13.9,15.6L213.5,170.8z"/>
	<path class="st5" d="M234.8,149.1l-21.3-8l13.9,15.6L234.8,149.1z M213.5,170.8l-21-19.2l8.8-17.6L213.5,170.8z"/>
	<path class="st6" d="M186.6,163.5l26.9,7.3l-21-19.2L186.6,163.5z"/>
	<path class="st4" d="M203,192c0.4-0.2,10.5-21.1,10.5-21.1l-26.9-7.3L203,192z M179.6,134h21.7l-14.7,29.5L179.6,134z"/>
	<path class="st6" d="M199.4,119.7l-6.4,9.7l8.3,4.6L199.4,119.7z"/>
	<path class="st4" d="M173.8,115.5l25.6,4.2l-6.4,9.7L173.8,115.5z"/>
	<path class="st5" d="M193,129.4l-11.8-0.2L106.6,105l73,29h21.7L193,129.4z"/>
	<path class="st0" d="M122.9,82.5l35.3,35.5l-8.5,1.4l-15.6-5.2L122.9,82.5z"/>
	<path class="st8" d="M139.5,118.1l6.8,15.9l22.6-4.3L139.5,118.1z"/>
	<path class="st9" d="M162,149.1c0.2-0.5,6.6-19.3,6.6-19.3l-22.3,4.2l6.3,11.5L162,149.1z"/>
	<path class="st8" d="M179.6,134L162,149.1l6.7-19.4L179.6,134z"/>
	<path class="st9" d="M149.7,119.4l24.1-3.9l19.2,13.9l-11.8-0.2L149.7,119.4z M71.7,135.2l71.2-9.3l3.4,8.1L71.7,135.2z M70,115.5
		l69.5,2.6l3.4,7.8L70,115.5z"/>
	<path class="st8" d="M92.3,152.4l54-18.4l3.4,6.2L92.3,152.4z M109.6,169l40.2-28.8l2.9,5.3L109.6,169z"/>
	<path class="st9" d="M131.4,182.1l21.3-36.6l9.3,3.6L131.4,182.1z M31.2,44.5c0.5,0,91.7,38,91.7,38l3.7,10.3L31.2,44.5L31.2,44.5z
		 M30.3,59.6c0.7,0,96.2,33.2,96.2,33.2l3.6,10.2L30.3,59.6L30.3,59.6z"/>
	<path class="st8" d="M130.4,103L30.3,59.6L32,75.8l16.2,9.7L130.4,103z"/>
	<path class="st10" d="M134.1,114.2l-3.9-11.2l-82-17.5L134.1,114.2z M126.5,92.8L8.8,33.5L23.9,56l6.4,3.6L126.5,92.8z M122.9,82.5
		L14,0l71.2,66.8L122.9,82.5z"/>
	<path class="st8" d="M0,5.6L14,0l71.2,66.8l-54-22.3l-22.4-11L0,5.6z"/>
	<path class="st0" d="M139.5,118.1l-32-12.9L48.2,85.5l1.3,12.8l9.2,17.2L139.5,118.1z"/>
	<path class="st8" d="M142.9,125.9l-71.2-10.1l-13-0.3l9.7,10.5l-0.8,10.1L142.9,125.9z"/>
	<path class="st10" d="M146.3,134l-72.1,1.2l-6.6,0.9l23.5,8.7l1.2,7.6L146.3,134z M149.7,140.2l-57.4,12.2l16.7,5.9l0.6,10.7
		L149.7,140.2z"/>
	<path class="st8" d="M152.7,145.5L109.6,169l14.8,1.8l7,11.3L152.7,145.5z M179.6,134L162,149.1l-30.6,33l13.6,1.5l6.9,4L179.6,134
		z"/>
	<path class="st5" d="M184,152.4l-4.4-18.4l-27.7,53.6L184,152.4z"/>
	<path class="st6" d="M171.9,193.1l12.1-40.7l-32.1,35.2l12.1-3.5L171.9,193.1z"/>
	<path class="st6" d="M186.6,163.5l-2.6-11.1l-12.1,40.7L186.6,163.5z"/>
	<path class="st5" d="M203,192l-31.1,1.1l14.7-29.6L203,192z"/>
	<path class="st6" d="M203,192c0,0-13.6,17.8-13.6,17.6s-17.5-16.5-17.5-16.5L203,192z"/>
	<path class="st4" d="M166.4,211.1c0.6,0,17.5-6.7,17.5-6.7l5.8,5.2L166.4,211.1z"/>
	<path class="st5" d="M176.2,218.3l-9.8-7.2l23.4-1.5L176.2,218.3z"/>
	<path class="st7" d="M158.2,214.4l13.7-21.3l12.1,11.2L158.2,214.4z"/>
	<path class="st5" d="M167.1,187.6l0.1,12.9l4.7-7.4L167.1,187.6z"/>
	<path class="st4" d="M147,204.3l11.2,10.1l9-13.9L147,204.3z"/>
	<path class="st6" d="M167.1,187.6L147,204.3l20.2-3.8L167.1,187.6z"/>
	<path class="st7" d="M148,185.4l3.8,2.3l8.7,5.4L147,204.3L148,185.4z"/>
	<path class="st5" d="M164,184.1l-3.5,9l-8.7-5.4L164,184.1z"/>
	<path class="st4" d="M167.1,187.6l-3.1-3.5l-3.5,9L167.1,187.6z"/>
	<path class="st9" d="M131.1,232.1c0.6-0.8,15.9-27.8,15.9-27.8l11.2,10.1L131.1,232.1L131.1,232.1z"/>
	<path class="st10" d="M110.8,213.5c1-0.3,36.2-9.1,36.2-9.1l-15.9,27.7L110.8,213.5z"/>
	<path class="st8" d="M130.4,197.5l16.6,6.8l-36.2,9.2L130.4,197.5z M115.6,187.6l15.8-5.5l-1,15.4L115.6,187.6z"/>
	<path class="st9" d="M110.8,213.5l4.8-25.9l14.8,9.9L110.8,213.5z"/>
	<path class="st8" d="M148,185.4c0,0-17.7,12.5-17.6,12.1c0-0.4,1-15.3,1-15.3l13.6,1.5L148,185.4L148,185.4z"/>
	<path class="st9" d="M147,204.3l1-18.9l-17.6,12.1L147,204.3z"/>
	<path class="st8" d="M113.4,241.7l-2.6-28.2l20.3,18.6L113.4,241.7z"/>
	<path class="st9" d="M122.9,260l8.2-27.9l-17.7,9.6L122.9,260z"/>
	<path class="st10" d="M147,239.6l-15.9-7.5l-8.2,27.9L147,239.6z"/>
	<path class="st0" d="M158.2,214.4L147,239.6l-15.9-7.5L158.2,214.4z"/>
	<path class="st9" d="M160,231.2l16.2-12.9l-9.8-7.2l-8.2,3.3l-4,9.1L160,231.2z M157.9,243.2l-3.7-19.7l-7.2,16.1L157.9,243.2z
		 M147,258.5v-18.9l-13.9,11.8L147,258.5z M131.1,267l-8.2-7l10.2-8.6L131.1,267z"/>
	<path class="st8" d="M222.6,313.5l-68.4-90l41.3,88L222.6,313.5z M182.5,324.2c0-1.8-35.5-84.6-35.5-84.6l48.5,71.9L182.5,324.2z
		 M116.4,169.7l15,12.4l-7-11.3L116.4,169.7z"/>
	<path class="st9" d="M115.6,187.6l0.8-17.9l15,12.4L115.6,187.6z M182.5,324.2L147,239.6l19.4,73.9L182.5,324.2z M149.7,320
		l-16.6-68.6l33.3,62.1L149.7,320z M139.2,295.8l10.5,24.2l-16.6-68.6L139.2,295.8z"/>
	<path class="st11" d="M226.5,97.7c-1.7,0-3.1,1.4-3.1,3.1c0,0.7,0.2,1.3,0.6,1.8l5.1-3.3C228.7,98.3,227.7,97.7,226.5,97.7z"/>
	<path class="st12" d="M226.5,103.8c1.7,0,3.1-1.4,3.1-3.1c0-0.5-0.2-1-0.4-1.5l-5.1,3.3C224.6,103.3,225.5,103.8,226.5,103.8z"/>
	<circle class="st13" cx="225.6" cy="99.5" r="0.5"/>
	<g>
		<polygon class="st0" points="166.4,313.5 149.7,320 168.9,333 182.5,324.2 182.5,324.2 		"/>
		<path class="st0" d="M182.5,324.2L182.5,324.2L182.5,324.2z"/>
		<polygon class="st0" points="195.5,311.5 182.5,324.2 203,329.3 222.6,313.5 		"/>
	</g>
</g>
</svg>
